<svg width="6" height="51" viewBox="0 0 6 51" fill="none" xmlns="http://www.w3.org/2000/svg">
<path d="M3 0.216146C1.52724 0.216146 0.333333 1.41005 0.333333 2.88281C0.333333 4.35557 1.52724 5.54948 3 5.54948C4.47276 5.54948 5.66667 4.35557 5.66667 2.88281C5.66667 1.41005 4.47276 0.216146 3 0.216146ZM3 50.8828L5.88675 45.8828H0.113249L3 50.8828ZM2.5 2.88281V3.88281H3.5V2.88281H2.5ZM2.5 5.88281L2.5 7.88281H3.5V5.88281H2.5ZM2.5 9.88281V11.8828H3.5V9.88281H2.5ZM2.5 13.8828V15.8828H3.5V13.8828H2.5ZM2.5 17.8828V19.8828H3.5V17.8828H2.5ZM2.5 21.8828V23.8828H3.5L3.5 21.8828H2.5ZM2.5 25.8828L2.5 27.8828H3.5V25.8828H2.5ZM2.5 29.8828V31.8828H3.5V29.8828H2.5ZM2.5 33.8828V35.8828H3.5V33.8828H2.5ZM2.5 37.8828V39.8828H3.5V37.8828H2.5ZM2.5 41.8828L2.5 43.8828H3.5V41.8828H2.5ZM2.5 45.8828V47.8828H3.5V45.8828H2.5Z" fill="#999999"/>
</svg>
