<svg width="42" height="42" viewBox="0 0 42 42" fill="none" xmlns="http://www.w3.org/2000/svg">
<rect width="42" height="42" rx="12" fill="#E8EDFF"/>
<g clip-path="url(#clip0_48_2)">
<path fill-rule="evenodd" clip-rule="evenodd" d="M21 5.66663C21.7364 5.66663 22.3333 6.26358 22.3333 6.99996V8.33329H23.6666C25.8758 8.33329 27.6666 10.1242 27.6666 12.3333V13.6666C29.8758 13.6666 31.6666 15.4575 31.6666 17.6666V20.7143L31.8511 20.767C33.5991 21.2664 34.6246 23.0744 34.1562 24.8309L33.0443 29.0004C33.5169 29.0166 33.9661 29.2842 34.1925 29.737C34.5218 30.3956 34.2549 31.1965 33.5962 31.5258L33.4555 31.5962C32.3784 32.1347 31.119 32.1582 30.0261 31.6666H30L30.0026 31.656C29.9608 31.6368 29.9191 31.6169 29.8778 31.5962L29.5962 31.4555C29.2209 31.2678 28.779 31.2678 28.4037 31.4555L28.1221 31.5962C26.996 32.1593 25.6705 32.1593 24.5444 31.5962L24.2629 31.4555C23.8875 31.2678 23.4457 31.2678 23.0703 31.4555L22.7888 31.5962C21.6627 32.1593 20.3372 32.1593 19.2111 31.5962L18.9296 31.4555C18.5542 31.2678 18.1124 31.2678 17.737 31.4555L17.4555 31.5962C16.3294 32.1593 15.0039 32.1593 13.8778 31.5962L13.5962 31.4555C13.2209 31.2678 12.779 31.2678 12.4037 31.4555L12.1221 31.5962C12.0808 31.6169 12.0392 31.6368 11.9973 31.656L12 31.6666H11.9738C10.8809 32.1582 9.62145 32.1347 8.54443 31.5962L8.40366 31.5258C7.74502 31.1965 7.47806 30.3956 7.80738 29.737C8.03376 29.2842 8.48298 29.0166 8.95564 29.0004L7.84378 24.8309C7.37536 23.0744 8.40081 21.2664 10.1488 20.767L10.3333 20.7143V17.6666C10.3333 15.4575 12.1242 13.6666 14.3333 13.6666V12.3333C14.3333 10.1242 16.1242 8.33329 18.3333 8.33329H19.6666V6.99996C19.6666 6.26358 20.2636 5.66663 21 5.66663ZM11.6812 28.8716C12.6945 28.5177 13.816 28.5839 14.7888 29.0703L15.0703 29.2111C15.4457 29.3988 15.8875 29.3988 16.2629 29.2111L16.5444 29.0703C17.6705 28.5073 18.996 28.5073 20.1221 29.0703L20.4037 29.2111C20.779 29.3988 21.2209 29.3988 21.5962 29.2111L21.8778 29.0703C23.0039 28.5073 24.3294 28.5073 25.4555 29.0703L25.737 29.2111C26.1124 29.3988 26.5542 29.3988 26.9296 29.2111L27.2111 29.0703C28.1839 28.5839 29.3055 28.5177 30.3188 28.8717L31.5795 24.1438C31.6732 23.7925 31.4681 23.4309 31.1185 23.331L21.3663 20.5447C21.1269 20.4763 20.8731 20.4763 20.6337 20.5447L10.8814 23.331C10.5318 23.4309 10.3267 23.7925 10.4204 24.1438L11.6812 28.8716ZM13 19.9523L19.9011 17.9806C20.6193 17.7754 21.3806 17.7754 22.0989 17.9806L29 19.9524V17.6666C29 16.9302 28.403 16.3333 27.6666 16.3333H14.3333C13.5969 16.3333 13 16.9302 13 17.6666V19.9523ZM17 12.3333C17 11.5969 17.5969 11 18.3333 11H23.6666C24.403 11 25 11.5969 25 12.3333V13.6666H17V12.3333Z" fill="#3258E8"/>
</g>
<defs>
<clipPath id="clip0_48_2">
<rect width="32" height="32" fill="white" transform="translate(5 5)"/>
</clipPath>
</defs>
</svg>
